HIERARCHY
ROOT pelvis
{
  OFFSET 0 100 0
  CHANNELS 6 Xposition Yposition Zposition Zrotation Xrotation Yrotation
  JOINT pelvis_right_femur
  {
    OFFSET -10.78128 -3.44521 -0.5502486
    CHANNELS 3 Zrotation Xrotation Yrotation
    JOINT right_femur_tibia
    {
      OFFSET -0.8047443 -44.0398 -0.1307829
      CHANNELS 3 Zrotation Xrotation Yrotation
      JOINT right_tibia_foot
      {
        OFFSET 3.006224 -47.83518 -5
        CHANNELS 3 Zrotation Xrotation Yrotation
        End Site
        {
          OFFSET 0 -5 15
        }
      }
    }
  }
  JOINT pelvis_left_femur
  {
    OFFSET 10.78128 -3.44521 -0.5502486
    CHANNELS 3 Zrotation Xrotation Yrotation
    JOINT left_femur_tibia
    {
      OFFSET 0.8047443 -44.0398 -0.1307829
      CHANNELS 3 Zrotation Xrotation Yrotation
      JOINT left_tibia_foot
      {
        OFFSET -4.370144 -48.10324 -4.275266
        CHANNELS 3 Zrotation Xrotation Yrotation
        End Site
        {
          OFFSET 0 -5 15
        }
      }
    }
  }
  JOINT pelvis_spine1
  {
    OFFSET 0 6.468898 -3.129235
    CHANNELS 3 Zrotation Xrotation Yrotation
    JOINT spine1
    {
      OFFSET 0 23.15396 4.99043
      CHANNELS 3 Zrotation Xrotation Yrotation
      JOINT spine2
      {
        OFFSET 0 20.79997 -5.064912
        CHANNELS 3 Zrotation Xrotation Yrotation
        JOINT neck
        {
          OFFSET 0 14.38658 9.616178
          CHANNELS 3 Zrotation Xrotation Yrotation
          End Site
          {
            OFFSET 0 20 0
          }
        }
      }
      JOINT right_manubrium
      {
        OFFSET -5.722621 16.35077 3.967754
        CHANNELS 3 Zrotation Xrotation Yrotation
        JOINT right_clavicle
        {
          OFFSET -13.16364 1.694482 -4.693211
          CHANNELS 3 Zrotation Xrotation Yrotation
          JOINT right_humerus
          {
            OFFSET -28.5034 -0.3100689 -2.792744
            CHANNELS 3 Zrotation Xrotation Yrotation
            JOINT right_radius
            {
              OFFSET -25.15693 0.02248979 -1.271978
              CHANNELS 3 Zrotation Xrotation Yrotation
              End Site
              {
                OFFSET -15 0 0
              }
            }
          }
        }
      }
      JOINT left_manubrium
      {
        OFFSET 5.722621 16.35077 3.967754
        CHANNELS 3 Zrotation Xrotation Yrotation
        JOINT left_clavicle
        {
          OFFSET 13.16364 1.694482 -4.693211
          CHANNELS 3 Zrotation Xrotation Yrotation
          JOINT left_humerus
          {
            OFFSET 29.39168 -1.063119 -2.237045
            CHANNELS 3 Zrotation Xrotation Yrotation
            JOINT left_radius
            {
              OFFSET 24.59957 -0.9528479 0.9047498
              CHANNELS 3 Zrotation Xrotation Yrotation
              End Site
              {
                OFFSET 15 -0 -0
              }
            }
          }
        }
      }
    }
  }
}
MOTION
Frames: 19
Frame Time: 0.0416666666667
0 103.5113 0 1.18973 -1.492463 0.1387231 6.020303 -14.90661 8.978419 -0 38.74084 -0 -5.364235 -19.45525 -3.795619 -7.323372 9.842249 -21.13989 -0 6.5848 -0 21.14776 -8.224241 27.03272 -1.964271 -1.776582 4.613559 2.60599 10.23165 -7.229319 0.9817455 21.3102 6.604366 3.372498 -24.35338 8.423391 5.346957 -18.80786 11.53395 86.38925 35.79254 -18.68553 -0 0 13.83638 -8.584212 7.830006 5.480418 6.22259 -20.76961 -2.476711 -91.5182 21.12122 20.21385 0 0 -16.60147 12.38475 12.13724 -0.9625764
0.563374 104.011 1.437234 1.030113 -0.1834494 0.3113382 6.632737 -17.1292 9.392272 -0 38.32996 -0 -4.824162 -18.86352 -3.276365 -7.591799 9.668909 -21.38562 -0 7.013689 -0 21.29343 -9.078489 26.88788 -1.938356 -1.854166 4.544399 2.722241 10.26605 -7.434619 1.006323 21.11168 6.677735 3.28623 -24.72835 8.699897 5.283467 -18.73217 11.51908 87.01312 36.00152 -19.56647 -0 0 13.4967 -8.010357 7.823377 5.096827 6.416847 -20.9701 -2.41621 -90.9131 20.8573 19.44221 0 0 -18.07871 13.10548 11.71589 -1.776761
1.060293 104.2234 3.146988 1.00703 0.3653559 0.4777136 6.343155 -19.8164 8.914831 -0 34.90425 -0 -4.339138 -16.66448 -2.847171 -7.660655 10.89338 -21.39306 -0 6.969556 -0 18.22045 -12.31954 26.72354 -1.954337 -1.813218 4.434926 2.786467 10.19461 -7.50978 1.04004 21.07396 6.776717 3.166087 -24.95093 8.971291 5.246308 -18.52233 11.51338 87.36135 36.42126 -19.9165 -0 0 12.98534 -8.079744 8.216579 5.221651 6.394102 -20.94476 -2.301443 -90.37536 20.9715 18.78419 0 0 -19.09093 13.15851 11.53395 -1.699681
1.514228 104.2409 5.10771 0.8877467 0.9643776 0.6600172 6.287286 -22.25008 8.270772 -0 31.73466 -0 -4.330849 -14.46174 -2.378777 -7.648852 11.50116 -21.0453 -0 7.169754 -0 16.17598 -14.5873 26.11209 -1.961487 -1.794794 4.372209 2.824754 10.15921 -7.559434 1.060166 21.04282 6.833715 3.096291 -25.08154 9.131371 5.222347 -18.40535 11.51041 87.5805 36.65822 -20.14381 -0 0 12.69682 -8.105546 8.448601 5.277619 6.389749 -20.94086 -2.238711 -90.04899 21.0115 18.38754 0 0 -19.71329 13.21773 11.41736 -1.693122
1.929426 104.0544 7.391221 0.6940914 1.6333 0.883149 6.305938 -24.93632 7.339398 -0 27.98196 -0 -4.621716 -11.80041 -1.820377 -7.565372 11.94299 -20.33497 -0 7.565552 -0 14.31254 -16.63984 25.081 -1.971812 -1.762568 4.304231 2.861468 10.11309 -7.598899 1.0774 21.03448 6.890028 3.023467 -25.19635 9.278067 5.205019 -18.27618 11.51034 87.76818 36.90847 -20.31577 -0 0 12.38419 -8.211445 8.720178 5.402914 6.346195 -20.91402 -2.172985 -89.75357 21.12842 18.03678 0 0 -20.24602 13.15054 11.34304 -1.515961
2.314689 103.6773 10.07833 0.4290859 2.333133 1.170308 6.406283 -27.65733 6.174162 -0 23.87467 -0 -5.201055 -8.833609 -1.195495 -7.409708 12.23083 -19.2594 -0 8.293347 -0 12.80964 -18.2072 23.67355 -1.984218 -1.726672 4.247827 2.880762 10.0734 -7.615889 1.091725 21.04083 6.937984 2.965664 -25.25668 9.390556 5.193176 -18.16004 11.51267 87.88713 37.12209 -20.39518 -0 0 12.12564 -8.380827 8.988866 5.553657 6.297833 -20.8788 -2.122927 -89.50909 21.21948 17.74992 0 0 -20.6284 13.06174 11.30123 -1.332866
2.677775 103.1507 13.2602 0.06309883 3.120383 1.542034 6.609409 -30.33666 4.906285 -0 19.62313 -0 -6.00512 -5.728041 -0.5267029 -7.162441 12.4152 -17.90923 -0 9.524573 -0 11.48193 -19.2527 21.88146 -1.998933 -1.683827 4.194587 2.890609 10.0341 -7.619089 1.103748 21.0611 6.983273 2.913726 -25.28385 9.483814 5.18582 -18.04306 11.51748 87.96444 37.32553 -20.41376 -0 0 11.87992 -8.616363 9.276295 5.743089 6.235272 -20.83359 -2.080038 -89.28962 21.31755 17.49693 0 0 -20.9209 12.92519 11.28474 -1.09622
3.024828 102.5566 17.02558 -0.4399819 3.981485 2.011036 6.93891 -32.66723 3.707283 -0 15.70318 -0 -7.031688 -2.734516 0.128553 -6.781229 12.50715 -16.43094 -0 11.58177 -0 10.0702 -19.62868 19.69334 -2.016113 -1.635236 4.148136 2.886947 9.997873 -7.604563 1.113655 21.09475 7.024381 2.871387 -25.26795 9.553351 5.182847 -17.92964 11.52451 87.98869 37.50908 -20.3585 -0 0 11.66355 -8.918653 9.574329 5.964999 6.165023 -20.77948 -2.047818 -89.10026 21.40286 17.28228 0 0 -21.10664 12.75952 11.29235 -0.8368106
3.35904 102.0287 21.43881 -1.102572 4.821163 2.570778 7.418196 -34.17725 2.796164 -0 12.81198 -0 -8.277949 -0.1895821 0.6673187 -6.218687 12.48812 -15.03204 -0 14.90649 -0 8.243579 -19.14811 17.15059 -2.035565 -1.580593 4.107478 2.871276 9.964034 -7.574311 1.121441 21.14105 7.062163 2.8372 -25.21306 9.601437 5.183935 -17.81796 11.53371 87.96502 37.67544 -20.23665 -0 0 11.47034 -9.286955 9.884334 6.220609 6.085997 -20.71687 -2.025055 -88.9368 21.48107 17.10108 0 0 -21.19764 12.56011 11.3212 -0.5465445
3.68041 101.7353 26.51136 -1.860798 5.344787 3.166197 7.99945 -34.23435 2.314181 -0 11.64281 -0 -9.713344 1.590802 0.9425564 -5.469532 12.31845 -13.88551 -0 19.9953 -0 5.859762 -17.60567 14.49173 -2.057212 -1.520186 4.073765 2.842702 9.933088 -7.527582 1.127228 21.19955 7.096213 2.811892 -25.11739 9.627258 5.188796 -17.70926 11.54486 87.89101 37.82127 -20.04601 -0 0 11.30468 -9.720477 10.20268 6.508036 6.000005 -20.64587 -2.012372 -88.80045 21.54834 16.95428 0 0 -21.19165 12.33066 11.36961 -0.2318648
3.985547 101.8369 32.17132 -2.510966 5.076778 3.663804 8.511822 -32.27888 2.174305 -0 12.40854 -0 -11.25425 2.511202 0.8418185 -4.625452 11.89037 -12.99726 -0 27.19287 -0 3.21976 -14.95071 12.21482 -2.080828 -1.454117 4.0473 2.801469 9.905004 -7.464969 1.13113 21.26948 7.126601 2.795116 -24.98215 9.631493 5.196952 -17.60373 11.55781 87.76819 37.94537 -19.7892 -0 0 11.16655 -10.21786 10.52771 6.826528 5.907522 -20.56667 -2.009502 -88.6901 21.60539 16.84057 0 0 -21.09343 12.07068 11.43504 0.1079737
4.263425 102.4477 38.23871 -2.79628 3.651082 3.891131 8.772433 -28.18379 2.1086 -0 14.50234 -0 -12.7705 2.762522 0.4151918 -3.847868 10.87906 -12.17059 -0 36.37914 -0 0.9518725 -11.48157 10.84306 -2.106195 -1.382597 4.028703 2.747439 9.879883 -7.386636 1.133388 21.34998 7.153211 2.786719 -24.80777 9.614678 5.207763 -17.50199 11.57232 87.59734 38.04561 -19.46769 -0 0 11.05762 -10.7774 10.85718 7.174655 5.809614 -20.47931 -2.016342 -88.60497 21.65122 16.75898 0 0 -20.90662 11.78147 11.51481 0.4708776
4.489523 103.6089 44.42277 -2.636609 1.237757 3.760593 8.795738 -22.45718 1.998648 -0 16.78111 -0 -14.02268 2.457193 -0.144828 -3.221598 8.665304 -11.19802 -0 46.62793 -0 -0.5857854 -7.84645 10.54037 -2.133022 -1.305859 4.018351 2.680793 9.857727 -7.293212 1.134327 21.43988 7.176065 2.786155 -24.59562 9.578022 5.22039 -17.40443 11.58813 87.38097 38.12036 -19.08492 -0 0 10.97841 -11.39686 11.18962 7.550932 5.707212 -20.38396 -2.032531 -88.54303 21.68545 16.70715 0 0 -20.63804 11.46399 11.60554 0.8556974
4.636365 105.2198 50.38581 -2.196445 -1.450443 3.314906 8.724066 -16.07277 1.976372 -0 18.11626 -0 -14.60323 1.328198 -0.691824 -2.663025 4.681692 -10.02931 -0 56.01002 -0 -1.585704 -4.841746 11.07743 -2.160973 -1.224224 4.01655 2.601796 9.838552 -7.1855 1.134371 21.53778 7.19518 2.792697 -24.34736 9.523097 5.233799 -17.31137 11.60493 87.12251 38.16795 -18.64531 -0 0 10.92929 -12.07331 11.52372 7.953394 5.601457 -20.28089 -2.057629 -88.50148 21.70733 16.68186 0 0 -20.29617 11.11996 11.70341 1.260407
4.706587 106.9655 55.90694 -1.67675 -3.694928 2.650447 8.576786 -10.04333 2.081377 -0 17.66656 -0 -14.16524 -0.8205785 -1.157959 -2.023841 -0.9253736 -8.663454 -0 61.94185 -0 -2.264986 -3.108921 12.10376 -2.189647 -1.138113 4.023381 2.510989 9.822373 -7.064747 1.134025 21.64194 7.210622 2.805321 -24.06535 9.451979 5.246775 -17.22295 11.62237 86.82697 38.18693 -18.15525 -0 0 10.90976 -12.80283 11.85854 8.379564 5.493584 -20.17066 -2.091068 -88.47647 21.71616 16.67854 0 0 -19.89218 10.75156 11.80399 1.682705
4.752826 108.4142 61.01865 -1.171114 -5.224994 1.863684 8.265201 -4.927941 2.063946 -0 15.25142 -0 -12.86067 -3.568409 -1.419945 -1.214741 -7.154068 -7.068972 -0 62.48067 -0 -2.411462 -2.72501 13.30919 -2.218575 -1.048092 4.038597 2.40925 9.809232 -6.932754 1.133883 21.7503 7.222511 2.822673 -23.75268 9.367329 5.25791 -17.13901 11.64004 86.50129 38.17629 -17.6235 -0 0 10.91826 -13.58019 12.19351 8.826177 5.385052 -20.0543 -2.132169 -88.4627 21.71108 16.69078 0 0 -19.44039 10.36201 11.90223 2.119289
4.853117 109.2516 65.92211 -0.7554799 -6.094289 1.034991 7.797541 -0.6398935 1.715442 -0 11.72988 -0 -11.35192 -6.307468 -1.371553 -0.2031752 -12.94728 -5.36133 -0 57.60807 -0 -1.80547 -3.112761 14.45539 -2.247227 -0.9549042 4.061462 2.297922 9.799213 -6.792066 1.134619 21.8604 7.231033 2.843027 -23.41333 9.272439 5.265641 -17.05885 11.65743 86.15469 38.13559 -17.06184 -0 0 10.95159 -14.3985 12.52849 9.288972 5.277574 -19.9335 -2.18016 -88.4532 21.6911 16.70985 0 0 -18.95879 9.955855 11.99245 2.565621
5.068804 109.3941 70.79542 -0.5357102 -6.388396 0.2170889 7.279153 3.227392 1.189642 -0 8.54889 -0 -10.2323 -8.970354 -1.114672 0.9842758 -17.79214 -3.866193 -0 48.90579 -0 -0.7428846 -3.549981 15.39889 -2.275026 -0.8594593 4.090763 2.178792 9.792445 -6.645903 1.136923 21.96959 7.236341 2.864417 -23.05192 9.170888 5.268356 -16.98136 11.67395 85.79826 38.06482 -16.48466 -0 0 11.00514 -15.24908 12.86333 9.762636 5.173027 -19.81062 -2.234284 -88.43995 21.65535 16.7254 0 0 -18.46766 9.538541 12.06885 3.016272
5.420049 108.9271 75.72634 -0.5409942 -6.252407 -0.5573506 6.746881 6.974587 0.826158 -0 6.856738 -0 -9.614688 -11.80276 -0.9083341 2.192393 -21.44949 -2.91877 -0 38.41675 -0 0.1848057 -3.659679 16.11908 -2.301359 -0.7627845 4.124968 2.053977 9.789097 -6.497927 1.141406 22.07531 7.238416 2.884878 -22.67332 9.065979 5.264544 -16.9052 11.68894 85.44393 37.96383 -15.90785 -0 0 11.07352 -16.12177 13.19721 10.24093 5.07324 -19.68856 -2.293931 -88.41527 21.6037 16.72701 0 0 -17.98697 9.115461 12.12609 3.46603
